<svg id="base" xmlns="http://www.w3.org/2000/svg" viewBox="0 0 237 526"><defs><style>.cls-1,.cls-8{fill:#c91212;}.cls-1{stroke:#c91212;}.cls-1,.cls-10,.cls-15,.cls-2,.cls-8,.cls-9{stroke-miterlimit:10;}.cls-2{fill:#ef2b2b;}.cls-15,.cls-2,.cls-8{stroke:#dd1919;}.cls-3{fill:#a8a416;}.cls-4{fill:#f48282;}.cls-5{fill:#f74646;}.cls-10,.cls-6{fill:#d33737;}.cls-7,.cls-9{fill:#ed6e6e;}.cls-9{stroke:#ed6e6e;}.cls-10{stroke:#d33737;}.cls-11{fill:#ddc61d;}.cls-12{fill:#562a2a;}.cls-13{fill:#7bb284;}.cls-14,.cls-15{fill:#dd1919;}.cls-16{fill:#e6ef29;}.cls-17{font-size:5.56px;}.cls-17,.cls-18,.cls-24,.cls-25{fill:#fff;}.cls-17,.cls-18,.cls-24{font-family:MyriadPro-Regular, Myriad Pro;}.cls-18{font-size:6.09px;}.cls-19{letter-spacing:-0.08em;}.cls-20{letter-spacing:0em;}.cls-21{letter-spacing:-0.08em;}.cls-22{letter-spacing:-0.03em;}.cls-23{letter-spacing:0em;}.cls-24{font-size:5.8px;}.cls-25{font-size:26.19px;font-family:Videophreak, Videophreak;}.cls-26{fill:#465445;}</style></defs><title>img base</title><path class="cls-1" d="M236.5,252.5c0-12.44-2.62-23.89-7-33V12.5a12,12,0,0,0-12-12H18.5a12,12,0,0,0-12,12V221.68a82.18,82.18,0,0,0,0,61.65V513.5a12,12,0,0,0,12,12h199a12,12,0,0,0,12-12v-228C233.88,276.39,236.5,264.94,236.5,252.5Z"/><path class="cls-2" d="M233.5,252.77a75.09,75.09,0,0,0-6.82-32.18V18.87A11.73,11.73,0,0,0,215,7.17H21A11.73,11.73,0,0,0,9.35,18.87V222.73a80.09,80.09,0,0,0,0,60.08V507.13A11.73,11.73,0,0,0,21,518.83H215a11.73,11.73,0,0,0,11.69-11.69V284.94A75.09,75.09,0,0,0,233.5,252.77Z"/><circle class="cls-3" cx="75.93" cy="343.05" r="10.14"/><circle class="cls-3" cx="75.93" cy="392.55" r="10.14"/><circle class="cls-3" cx="102.5" cy="367.05" r="10.14"/><circle class="cls-3" cx="49.75" cy="367.05" r="10.14"/><circle class="cls-3" cx="181.97" cy="366.6" r="17.07"/><circle class="cls-3" cx="75.93" cy="308.7" r="4.75"/><circle class="cls-3" cx="126.75" cy="307.7" r="4.75"/><circle class="cls-3" cx="178.92" cy="308.7" r="4.75"/><rect class="cls-4" x="9.17" y="229.5" width="219.4" height="28" rx="12.3" ry="12.3"/><path class="cls-5" d="M219.87,255.33H16.8c-9.27,0-13.77-8.38-10.21-18l5.32-14.46c3-8.25,11.86-14.66,19.77-14.66H205c7.91,0,16.74,6.41,19.77,14.66l5.32,14.46C233.64,247,229.14,255.33,219.87,255.33Z"/><path class="cls-6" d="M216.47,260.88l-194.89-.46c-8.89,0-14,6.32-11.51,13.77l3.84,11.38c2.24,6.63,10.46,11.86,18.37,11.88l173.32.41c7.91,0,16.16-5.17,18.43-11.79l3.89-11.36C230.46,267.27,225.36,260.9,216.47,260.88Z"/><path class="cls-7" d="M209.42,231.54H26.92c-8.33,0-14.8-2-14.4-4.53l.65-4c.4-2.43,7.4-4.41,15.56-4.41H207.6c8.16,0,15.16,2,15.56,4.41l.65,4C224.22,229.5,217.74,231.54,209.42,231.54Z"/><rect class="cls-8" x="204.67" y="12.33" width="0.17" height="2.67" rx="0.08" ry="0.08"/><path class="cls-9" d="M220.23,6.82H16.94c-3.35,0-6.15,3-6.68,7h-.1v192c0,5.25,3.25,1.43,6.65-7l5.66-14.11c2.14-5.34,3.7-12,3.7-15.42V33.25a32.86,32.86,0,0,0-1-6.81H220.23c3.73,0,6.77-3.73,6.77-8.3v-3C227,10.55,224,6.82,220.23,6.82Z"/><path class="cls-9" d="M22.9,339l-5.66-14.11c-3.4-8.47-6.65-12.29-6.65-7v192h.1c.53,3.93,3.32,7,6.68,7h1.07l7.26-20.06a31.65,31.65,0,0,0,.91-6.38V354.45C26.6,351,25,344.36,22.9,339Z"/><path class="cls-10" d="M220.35,325.92,214.69,340c-2.14,5.34-3.7,12-3.7,15.42V491.39a32.86,32.86,0,0,0,1,6.81H80L41.33,517.83h178.9c3.35,0,6.15-3,6.68-7h.1v-192C227,313.63,223.75,317.45,220.35,325.92Z"/><path class="cls-10" d="M214.69,184.62l5.66,14.11c3.4,8.47,6.65,12.29,6.65,7v-192h-.1c-.53-3.93-3.32-7-6.68-7h-1.07l-7.26,20.06a31.65,31.65,0,0,0-.91,6.38V169.2C211,172.61,212.54,179.28,214.69,184.62Z"/><path class="cls-11" d="M178.62,41.5H54.5v153h128V41.5Zm0,149H58.38V45.5H178.62Z"/><rect class="cls-11" x="35.58" y="490.5" width="165.83" height="2"/><rect class="cls-11" x="27.5" y="184.5" width="10" height="10"/><rect class="cls-11" x="39.5" y="184.5" width="10" height="10"/><rect class="cls-11" x="27.5" y="171.5" width="10" height="10"/><rect class="cls-11" x="28" y="82.5" width="10" height="10"/><rect class="cls-11" x="40" y="82.5" width="10" height="10"/><rect class="cls-11" x="28" y="69.5" width="10" height="10"/><rect class="cls-11" x="28" y="95.5" width="10" height="10"/><rect class="cls-11" x="186.99" y="136.5" width="10" height="10"/><rect class="cls-11" x="198.99" y="136.5" width="10" height="10"/><rect class="cls-11" x="186.99" y="123.5" width="10" height="10"/><rect class="cls-11" x="186.99" y="149.5" width="10" height="10"/><rect class="cls-11" x="185.99" y="64.83" width="10" height="10"/><rect class="cls-11" x="197.99" y="64.83" width="10" height="10"/><rect class="cls-11" x="185.99" y="51.83" width="10" height="10"/><rect class="cls-12" x="198.49" y="100.17" width="10" height="10" transform="translate(98.32 308.65) rotate(-90)"/><rect class="cls-12" x="198.49" y="88.17" width="10" height="10" transform="translate(110.32 296.65) rotate(-90)"/><rect class="cls-12" x="185.49" y="100.17" width="10" height="10" transform="translate(85.32 295.65) rotate(-90)"/><rect class="cls-12" x="40.5" y="137.5" width="10" height="10" transform="translate(-97 188) rotate(-90)"/><rect class="cls-12" x="40.5" y="125.5" width="10" height="10" transform="translate(-85 176) rotate(-90)"/><rect class="cls-12" x="27.5" y="137.5" width="10" height="10" transform="translate(-110 175) rotate(-90)"/><rect class="cls-12" x="186.99" y="172.83" width="10" height="10" transform="translate(370.05 -13.95) rotate(90.07)"/><rect class="cls-12" x="186.98" y="184.83" width="10" height="10" transform="translate(382.04 -1.92) rotate(90.07)"/><rect class="cls-12" x="199.99" y="172.85" width="10" height="10" transform="translate(383.08 -26.94) rotate(90.07)"/><rect class="cls-12" x="28" y="46.83" width="10" height="10" transform="translate(84.86 18.89) rotate(90.07)"/><rect class="cls-12" x="41" y="46.84" width="10" height="10" transform="translate(97.89 5.9) rotate(90.07)"/><rect class="cls-13" x="66.5" y="53.63" width="105" height="128.74"/><rect class="cls-14" x="60.5" y="48.31" width="10.33" height="139.39"/><rect class="cls-7" x="165.5" y="48.31" width="10.33" height="140.19"/><polygon class="cls-15" points="164.96 56.92 71.38 56.92 62.17 48.6 174.16 48.6 164.96 56.92"/><polygon class="cls-9" points="165.29 179.68 71.71 179.68 62.5 187.99 174.5 187.99 165.29 179.68"/><circle class="cls-16" cx="75.93" cy="345.05" r="10.14"/><circle class="cls-16" cx="75.93" cy="394.55" r="10.14"/><circle class="cls-16" cx="102.5" cy="369.05" r="10.14"/><circle class="cls-16" cx="49.75" cy="369.05" r="10.14"/><circle class="cls-16" cx="181.97" cy="368.6" r="17.07"/><circle class="cls-16" cx="75.93" cy="309.7" r="4.75"/><circle class="cls-16" cx="126.75" cy="308.7" r="4.75"/><circle class="cls-16" cx="178.92" cy="309.7" r="4.75"/><text class="cls-17" transform="translate(67 320.44)">ON/OFF</text><text class="cls-18" transform="translate(111.47 320.44)">PL<tspan class="cls-19" x="6.11" y="0">A</tspan><tspan class="cls-20" x="9.36" y="0">Y/</tspan><tspan class="cls-21" x="14.74" y="0">P</tspan><tspan class="cls-22" x="17.47" y="0">A</tspan><tspan class="cls-23" x="21.02" y="0">USE</tspan></text><text class="cls-24" transform="translate(169.56 320.44)">SOUND</text><text class="cls-25" transform="matrix(0.87, -0.64, 0.59, 0.8, 73.11, 462.86)">Mini <tspan x="0" y="31.43" xml:space="preserve">   Race</tspan></text><rect class="cls-26" x="74.38" y="57.42" width="1.74" height="121.83"/><rect class="cls-26" x="136.18" y="57.42" width="1.74" height="121.67"/></svg>